<svg version="1.1" id="Layer_1" xmlns="http://www.w3.org/2000/svg" xmlns:xlink="http://www.w3.org/1999/xlink" x="0px" y="0px"
	 width="100%" viewBox="0 0 1024 544" enable-background="new 0 0 1024 544" xml:space="preserve">
<path fill="#000000" opacity="1.000000" stroke="none" 
	d="
M547.240967,254.220764 
	C555.026550,243.086609 558.301453,231.230316 555.969849,218.020691 
	C555.775879,216.921967 555.639099,215.412445 556.212952,214.644638 
	C559.653442,210.040878 563.376282,205.664154 568.156006,201.635498 
	C571.558716,207.317352 572.637451,213.067749 573.181580,218.751587 
	C577.053162,259.192810 546.167664,289.068695 511.841034,294.281708 
	C507.549988,294.933350 503.240875,295.134094 498.899200,295.124268 
	C474.908325,295.070007 450.916748,294.995087 426.926788,295.148193 
	C422.224060,295.178192 420.434692,293.770599 420.653107,288.853699 
	C421.614349,267.214264 427.232574,247.071579 440.058655,229.447906 
	C451.915070,213.156662 464.218842,197.185562 476.543396,181.241821 
	C494.004242,158.653473 526.156494,158.970413 547.592712,176.334412 
	C549.768982,178.097275 550.033203,179.744385 547.969299,181.683258 
	C547.848206,181.797058 547.741028,181.925812 547.628052,182.048325 
	C545.033691,184.862305 542.930725,188.744263 539.721069,190.221252 
	C535.671997,192.084549 533.480225,186.899796 530.274170,185.152145 
	C514.784546,176.708466 499.332397,179.441910 488.443390,193.400589 
	C477.175781,207.844620 466.092834,222.438339 455.194305,237.162872 
	C446.454895,248.970245 440.779602,262.145996 438.860626,276.643890 
	C440.433868,278.382416 442.209473,277.855591 443.789764,277.858826 
	C462.615936,277.897278 481.443604,277.734039 500.268066,277.915070 
	C519.932556,278.104156 535.274414,269.968903 547.240967,254.220764 
z"/>
<path fill="#000000" opacity="1.000000" stroke="none" 
	d="
M550.877441,295.868927 
	C565.851868,283.522095 578.762024,270.077667 584.675964,251.279587 
	C590.885620,231.541763 589.818054,212.192001 581.453918,193.365509 
	C579.711304,189.443085 580.082458,186.959747 583.151428,184.260315 
	C585.860352,181.877518 588.262207,179.145584 590.945557,176.419556 
	C593.497070,178.181519 594.518860,180.657486 595.649658,182.998398 
	C613.928772,220.841522 606.637878,264.665039 577.181824,294.706970 
	C559.380737,312.862122 538.538391,326.738800 516.191467,338.559570 
	C514.077637,339.677765 512.309814,339.837524 510.123962,338.704681 
	C491.559601,329.083954 474.330139,317.492218 458.389160,303.973511 
	C457.641541,303.339447 456.894989,302.673187 456.933716,300.627136 
	C467.721893,301.863464 478.787750,297.317474 488.699860,305.960907 
	C494.522888,311.038635 501.874603,314.341980 508.430603,318.609589 
	C511.619385,320.685272 514.354065,320.506866 517.630249,318.610687 
	C529.190002,311.920135 540.198120,304.457489 550.877441,295.868927 
z"/>
<path fill="#000000" opacity="1.000000" stroke="none" 
	d="
M498.577026,237.418365 
	C492.705322,231.025925 487.123871,224.845581 481.423889,218.776566 
	C479.249268,216.461121 478.760254,214.433441 481.123871,211.908295 
	C483.812103,209.036331 485.557983,205.327423 489.303375,202.438843 
	C497.089081,210.770508 504.768829,218.988754 512.986572,227.782715 
	C517.604004,222.878082 522.063110,218.262207 526.389587,213.525192 
	C545.256836,192.867722 564.037598,172.130997 582.983154,151.545837 
	C585.617920,148.683029 585.764038,146.919510 582.687622,144.337448 
	C579.583313,141.731903 576.117432,139.327286 573.386658,134.857285 
	C589.126648,131.011642 604.198914,127.329117 620.849487,123.260994 
	C617.862915,139.774231 615.096802,155.068634 612.214294,171.006409 
	C606.530273,167.648315 603.579163,162.755402 598.614868,159.303558 
	C593.489624,164.808823 588.371948,170.194397 583.376526,175.691086 
	C561.204468,200.088043 539.008301,224.463699 516.987915,248.997009 
	C514.010010,252.314713 512.135559,252.688965 509.248962,249.118774 
	C506.009705,245.112488 502.316071,241.473587 498.577026,237.418365 
z"/>
<path fill="#000000" opacity="1.000000" stroke="none" 
	d="
M407.530914,426.772583 
	C400.399323,430.005280 393.251312,431.308136 385.829803,431.294189 
	C376.663849,431.276917 367.495148,431.150360 358.333160,431.339722 
	C354.373566,431.421539 352.631653,430.288025 352.666809,425.994385 
	C352.834625,405.497223 352.813690,384.997803 352.713409,364.499878 
	C352.695465,360.829651 354.005096,359.515686 357.680603,359.573273 
	C368.843781,359.748260 380.013489,359.517303 391.176208,359.706543 
	C407.753784,359.987579 421.585693,370.523529 425.322327,385.443115 
	C429.689758,402.881409 423.342346,417.849579 407.530914,426.772583 
M371.173615,407.412720 
	C371.172760,408.244751 371.268433,409.090179 371.155151,409.906616 
	C370.476898,414.796112 372.708893,416.456787 377.414429,416.076935 
	C381.717041,415.729614 386.081299,416.106750 390.375977,415.707977 
	C400.418854,414.775482 407.735962,407.034882 408.492065,396.901611 
	C409.249969,386.743988 403.136017,377.946686 393.594330,375.298157 
	C387.692810,373.660034 381.673920,374.676147 375.722870,374.269104 
	C372.150543,374.024750 371.091095,375.644348 371.135712,378.978271 
	C371.258179,388.128845 371.175842,397.282196 371.173615,407.412720 
z"/>
<path fill="#000000" opacity="1.000000" stroke="none" 
	d="
M671.511047,407.217346 
	C664.155151,427.073181 642.243469,437.026764 620.754822,430.679474 
	C602.078674,425.162933 592.528137,410.634491 593.074585,393.738922 
	C593.674194,375.200592 607.275635,361.394928 626.064514,358.667267 
	C645.258423,355.880829 662.172791,363.646515 669.600891,378.718658 
	C674.075623,387.798279 674.607056,397.196411 671.511047,407.217346 
M631.817627,373.414368 
	C630.515991,373.667480 629.203979,373.876312 627.914429,374.180725 
	C618.647644,376.368256 612.336975,383.383545 611.396912,392.513062 
	C610.379456,402.394501 615.472900,411.483521 624.140015,415.252716 
	C632.555176,418.912354 643.456482,416.717194 649.406311,410.099609 
	C655.760864,403.031799 656.586487,394.763000 653.247253,386.375854 
	C649.664734,377.377747 642.095825,373.642334 631.817627,373.414368 
z"/>
<path fill="#000000" opacity="1.000000" stroke="none" 
	d="
M450.008759,427.003479 
	C448.865021,430.285950 446.891815,431.533295 443.768066,431.320740 
	C439.370911,431.021515 434.900574,431.725555 430.751923,430.863495 
	C429.909546,428.487274 431.104401,427.098816 431.779022,425.653198 
	C441.348969,405.145538 451.036652,384.692352 460.497559,364.134705 
	C462.050720,360.759857 464.127838,359.929901 467.679993,359.472015 
	C477.389130,358.220612 482.766052,361.337769 486.668671,371.024811 
	C493.806091,388.741394 502.825012,405.697906 510.974548,423.011322 
	C512.072266,425.343384 513.745361,427.556549 513.542358,430.879791 
	C508.085388,431.674591 502.647247,431.325714 497.237152,431.104492 
	C495.081604,431.016327 494.140747,429.073547 493.754303,427.307770 
	C491.649780,417.691895 485.608246,414.910797 476.336853,416.223419 
	C471.277466,416.939728 466.014862,416.621826 460.878021,416.270782 
	C456.241333,415.953918 453.179230,417.176331 452.105804,422.053314 
	C451.754852,423.647766 450.828674,425.115662 450.008759,427.003479 
M462.312775,399.257446 
	C462.021545,400.411652 460.785034,402.005219 463.309265,402.033142 
	C469.181061,402.098114 475.054077,402.053864 482.186615,402.053864 
	C478.517395,393.521423 475.398834,386.269501 471.752380,377.789978 
	C468.267761,385.665527 465.403778,392.138367 462.312775,399.257446 
z"/>
<path fill="#000000" opacity="1.000000" stroke="none" 
	d="
M555.660278,378.749695 
	C556.616882,377.419800 557.822510,376.632080 557.895264,374.753326 
	C552.525208,373.805817 547.084900,374.451996 541.690430,374.330963 
	C536.360474,374.211426 531.026001,374.255127 525.693848,374.290588 
	C523.033569,374.308258 521.901733,373.162628 521.659302,370.432190 
	C520.721313,359.868774 520.882019,359.618225 531.603577,359.616547 
	C546.434448,359.614227 561.265808,359.548645 576.095703,359.668945 
	C578.559753,359.688904 582.201233,358.180847 583.237183,361.292694 
	C584.518372,365.141357 584.971130,369.507843 581.852722,373.130127 
	C571.746765,384.868988 561.632385,396.600677 551.537537,408.349152 
	C549.715271,410.469910 547.970398,412.657104 545.820312,415.261200 
	C548.887268,416.418152 551.528870,415.998016 554.089661,416.012726 
	C562.754517,416.062500 571.420715,416.110687 580.084717,416.012451 
	C583.832397,415.969971 585.449707,417.324860 585.357361,421.303741 
	C585.092651,432.705536 586.329895,431.231323 575.515381,431.277161 
	C559.018433,431.347076 542.519226,431.161774 526.024719,431.372772 
	C521.587891,431.429504 520.148499,430.012817 520.456421,425.605988 
	C520.727478,421.727692 520.857727,418.212402 523.731079,415.019104 
	C534.427490,403.131592 544.888550,391.032318 555.660278,378.749695 
z"/>
<path fill="#000000" opacity="1.000000" stroke="none" 
	d="
M473.389587,174.201019 
	C468.124390,184.822464 460.245239,193.008911 452.926727,201.808701 
	C451.537811,194.739578 452.983368,188.146240 454.231720,181.560135 
	C457.641174,163.572281 465.467743,147.489029 475.655060,132.454010 
	C486.132782,116.990364 497.522156,102.217163 509.568787,87.948067 
	C510.516907,86.825058 511.342285,85.510002 513.823486,84.763145 
	C526.617065,99.681328 538.990906,115.331665 550.519653,132.717789 
	C545.450562,133.046600 542.311096,130.081284 538.639526,129.786514 
	C527.953918,128.928650 521.345276,122.514427 516.036865,114.058205 
	C515.346130,112.957909 514.354797,112.046356 512.910828,110.353493 
	C497.826538,130.645096 481.437683,149.553528 473.389587,174.201019 
z"/>
<path fill="#000000" opacity="1.000000" stroke="none" 
	d="
M420.702759,151.000351 
	C420.707275,145.334732 420.772614,140.168015 420.690582,135.003632 
	C420.651001,132.512421 421.694366,131.211578 424.173309,131.208603 
	C438.158325,131.191895 452.143372,131.188660 466.128235,131.237701 
	C466.872162,131.240311 467.614258,131.759857 468.880737,132.235291 
	C465.991333,137.241089 463.300293,141.969284 460.537415,146.655121 
	C459.532074,148.360199 457.729401,148.234741 456.066650,148.244125 
	C452.067444,148.266724 448.068054,148.248047 444.068726,148.246872 
	C437.347656,148.244919 437.333923,148.245209 437.332153,155.195755 
	C437.326843,176.192245 437.279419,197.188995 437.386047,218.184952 
	C437.404572,221.829193 436.762848,224.943726 434.438782,227.908829 
	C431.148346,232.106796 428.662720,236.856094 426.333038,241.662720 
	C425.710876,242.946289 425.355835,244.472656 423.213440,245.322906 
	C421.523712,238.432724 420.816345,231.721222 420.782135,224.987488 
	C420.657776,200.492233 420.714539,175.996048 420.702759,151.000351 
z"/>
<path fill="#000000" opacity="1.000000" stroke="none" 
	d="
M494.543793,144.542725 
	C503.897797,130.564438 503.921112,130.309204 520.295898,131.805740 
	C538.670349,133.485031 554.884460,140.752167 569.399719,152.037628 
	C571.844727,153.938644 571.852966,155.346756 569.888916,157.680771 
	C561.982178,167.076553 562.079346,167.090149 551.864563,160.434479 
	C539.729919,152.527817 526.410828,148.405670 511.900665,148.268402 
	C506.912109,148.221207 501.922638,148.271881 496.934082,148.224060 
	C494.715118,148.202789 492.578979,147.986191 494.543793,144.542725 
z"/>
<path fill="#000000" opacity="1.000000" stroke="none" 
	d="
M468.311432,229.890717 
	C469.134216,230.899200 469.868927,231.879471 470.081879,232.962341 
	C473.135773,248.492203 481.445068,260.429077 494.571350,269.131714 
	C495.479584,269.733856 496.736847,270.109894 496.831451,272.153534 
	C488.741547,272.153534 480.689545,272.196503 472.638885,272.112823 
	C471.232361,272.098206 470.367249,270.828186 469.513123,269.804199 
	C464.465485,263.752930 460.435120,257.095764 457.398499,249.812805 
	C456.196350,246.929596 456.215210,244.421112 458.333893,241.942261 
	C461.673676,238.034653 464.111176,233.398819 468.311432,229.890717 
z"/>
</svg>