<?xml version="1.0" encoding="UTF-8" standalone="no"?>
<svg
   version="1.1"
   id="Layer_1"
   x="0px"
   y="0px"
   width="360"
   viewBox="0 0 359.99999 380"
   enable-background="new 0 0 1024 544"
   xml:space="preserve"
   sodipodi:docname="DAZO-picto-carre-gris.svg"
   height="380"
   inkscape:version="1.4 (e7c3feb100, 2024-10-09)"
   xmlns:inkscape="http://www.inkscape.org/namespaces/inkscape"
   xmlns:sodipodi="http://sodipodi.sourceforge.net/DTD/sodipodi-0.dtd"
   xmlns="http://www.w3.org/2000/svg"
   xmlns:svg="http://www.w3.org/2000/svg"><defs
   id="defs11" /><sodipodi:namedview
   id="namedview11"
   pagecolor="#ffffff"
   bordercolor="#000000"
   borderopacity="0.25"
   inkscape:showpageshadow="2"
   inkscape:pageopacity="0.0"
   inkscape:pagecheckerboard="0"
   inkscape:deskcolor="#d1d1d1"
   inkscape:zoom="1.3369141"
   inkscape:cx="159.69613"
   inkscape:cy="187.3718"
   inkscape:window-width="1920"
   inkscape:window-height="1008"
   inkscape:window-x="0"
   inkscape:window-y="0"
   inkscape:window-maximized="1"
   inkscape:current-layer="Layer_1" />
<path
   fill="#000000"
   opacity="1"
   stroke="none"
   d="m 224.21296,248.38935 c 10.82634,-15.48273 15.38029,-31.96963 12.13805,-50.33845 -0.26972,-1.52783 -0.45992,-3.62693 0.33805,-4.6946 4.78422,-6.40181 9.96105,-12.48793 16.60757,-18.09003 4.73168,7.90097 6.23172,15.89726 6.98837,23.801 5.38367,56.23603 -37.56454,97.7803 -85.29785,105.02932 -5.96696,0.90615 -11.95905,1.1853 -17.99642,1.17164 -33.36082,-0.0755 -66.722591,-0.17963 -100.082122,0.0333 -6.539438,0.0418 -9.027668,-1.91561 -8.723942,-8.75287 1.336664,-30.09099 9.149149,-58.10064 26.984609,-82.60746 16.487091,-22.65399 33.596245,-44.8628 50.734315,-67.03357 24.28039,-31.41051 68.9901,-30.96978 98.79849,-6.82405 3.02624,2.45137 3.39365,4.74177 0.52368,7.4379 -0.1684,0.15825 -0.31743,0.33728 -0.47454,0.50765 -3.60762,3.91301 -6.53191,9.31112 -10.99515,11.36497 -5.63048,2.59103 -8.67827,-4.61869 -13.13649,-7.04891 -21.53929,-11.74145 -43.02646,-7.94044 -58.16831,11.46998 -15.66831,20.08532 -31.07985,40.37879 -46.234931,60.85417 -12.152679,16.41889 -20.044537,34.74059 -22.712984,54.90082 2.187688,2.41753 4.65677,1.68494 6.854261,1.68944 26.178974,0.0535 52.360004,-0.17352 78.536604,0.0781 27.3447,0.26293 48.67849,-11.04965 65.31874,-32.94842 z"
   id="path1"
   style="fill:#e6e6e6;stroke-width:1.39056" />
<path
   fill="#000000"
   opacity="1"
   stroke="none"
   d="m 229.26971,306.30372 c 20.82287,-17.16905 38.77524,-35.86436 46.99894,-62.00426 8.63492,-27.44668 7.15039,-54.35371 -4.48045,-80.53313 -2.42322,-5.45437 -1.9071,-8.90759 2.36049,-12.66133 3.76693,-3.31342 7.10686,-7.11236 10.83823,-10.90305 3.54803,2.45011 4.9689,5.8931 6.54134,9.14828 25.41824,52.62321 15.27981,113.56253 -25.68068,155.33772 -24.75351,25.24586 -53.73609,44.54225 -84.81088,60.97976 -2.93941,1.55493 -5.39769,1.77706 -8.43725,0.20179 -25.8149,-13.37822 -49.77353,-29.49726 -71.94046,-48.29586 -1.039612,-0.88169 -2.077736,-1.80818 -2.023879,-4.65332 15.001619,1.71916 30.389389,-4.6023 44.172799,7.41694 8.09728,7.06088 18.32029,11.65439 27.43682,17.58877 4.43421,2.88637 8.23694,2.63828 12.79268,10e-4 16.07455,-9.30363 31.38203,-19.68092 46.2323,-31.62383 z"
   id="path2"
   style="fill:#e6e6e6;stroke-width:1.39056" />
<path
   fill="#000000"
   opacity="1"
   stroke="none"
   d="m 156.54273,225.02457 c -8.16498,-8.88908 -15.92633,-17.48323 -23.85251,-25.92258 -3.02395,-3.21977 -3.70396,-6.0394 -0.41719,-9.55076 3.73814,-3.99363 6.1659,-9.15111 11.37411,-13.16786 10.8265,11.5857 21.50567,23.01368 32.93295,35.24223 6.42082,-6.8202 12.62149,-13.23885 18.63774,-19.82596 26.23608,-28.7255 52.3519,-57.56121 78.69686,-86.18616 3.66381,-3.98091 3.867,-6.433194 -0.41096,-10.023709 -4.31673,-3.62318 -9.13625,-6.96694 -12.93356,-13.182767 21.88744,-5.347602 42.84635,-10.468374 66.00002,-16.125363 -4.15301,22.962688 -7.99947,44.230499 -12.00778,66.392979 -7.90399,-4.66966 -12.00769,-11.47355 -18.91084,-16.27355 -7.12698,7.65541 -14.24342,15.1444 -21.18986,22.78789 -30.83163,33.92548 -61.69678,67.82135 -92.3175,101.93643 -4.14096,4.61347 -6.7475,5.13389 -10.7615,0.16931 -4.50439,-5.57098 -9.64062,-10.63109 -14.83998,-16.27013 z"
   id="path3"
   style="fill:#e6e6e6;stroke-width:1.39056" />




<path
   fill="#000000"
   opacity="1"
   stroke="none"
   d="m 121.51802,137.11692 c -7.32159,14.76978 -18.27803,26.15355 -28.454878,38.3902 -1.93138,-9.83005 0.07871,-18.99851 1.81467,-28.15689 4.741053,-25.01324 15.624388,-47.377991 29.790488,-68.285123 14.56992,-21.503168 30.40757,-42.046222 47.15916,-61.888284 1.31841,-1.561614 2.46615,-3.390281 5.91641,-4.428832 17.79027,20.744663 34.99688,42.507437 51.0283,66.683919 -7.04888,0.45723 -11.4145,-3.666231 -16.52005,-4.076128 -14.859,-1.192907 -24.04873,-10.112279 -31.4304,-21.871179 -0.96051,-1.530036 -2.33902,-2.797603 -4.34696,-5.151644 -20.97563,28.216747 -43.76537,54.510091 -54.95674,88.783961 z"
   id="path8"
   style="fill:#e6e6e6;stroke-width:1.39056" />
<path
   fill="#000000"
   opacity="1"
   stroke="none"
   d="m 48.253708,104.85494 c 0.007,-7.87839 0.09707,-15.063035 -0.01696,-22.244427 -0.05507,-3.464183 1.395832,-5.273082 4.842952,-5.277226 19.447026,-0.02322 38.894108,-0.02767 58.34094,0.04047 1.03447,0.0042 2.0664,0.726096 3.82752,1.38721 -4.0179,6.960877 -7.75996,13.53572 -11.60192,20.051672 -1.39798,2.371021 -3.904709,2.196561 -6.216866,2.209601 -5.561151,0.0314 -11.122551,0.005 -16.683855,0.004 -9.346066,-0.003 -9.365173,-0.003 -9.367634,9.66285 -0.007,29.19694 -0.07328,58.39422 0.07495,87.59039 0.02573,5.06754 -0.866598,9.39851 -4.098362,13.52167 -4.575548,5.83753 -8.031969,12.44171 -11.271535,19.12564 -0.865152,1.78488 -1.358857,3.90738 -4.337997,5.08972 -2.349675,-9.58124 -3.333317,-18.914 -3.380888,-28.27767 -0.172917,-34.06219 -0.094,-68.12564 -0.110411,-102.88371 z"
   id="path9"
   style="fill:#e6e6e6;stroke-width:1.39056" />
<path
   fill="#000000"
   opacity="1"
   stroke="none"
   d="m 150.93426,95.875212 c 13.00733,-19.437669 13.03975,-19.792597 35.80991,-17.711564 25.55081,2.335157 48.09754,12.440568 68.28191,28.133702 3.39994,2.64347 3.4114,4.60155 0.68027,7.84713 -10.99482,13.06542 -10.8597,13.08433 -25.064,3.82921 -16.87397,-10.99471 -35.39499,-16.72681 -55.57229,-16.91769 -6.93689,-0.0656 -13.87506,0.004 -20.81196,-0.0616 -3.0856,-0.0296 -6.05604,-0.33077 -3.32384,-5.119131 z"
   id="path10"
   style="fill:#e6e6e6;stroke-width:1.39056" />
<path
   fill="#000000"
   opacity="1"
   stroke="none"
   d="m 114.45653,214.55691 c 1.14414,1.40235 2.1658,2.76549 2.46192,4.27128 4.24662,21.59524 15.80122,38.19422 34.05413,50.29577 1.26295,0.83733 3.01126,1.36022 3.1428,4.20202 -11.2495,0 -22.44632,0.0598 -33.64125,-0.0566 -1.95587,-0.0203 -3.15886,-1.78636 -4.34658,-3.21028 -7.01906,-8.41467 -12.62352,-17.67188 -16.846133,-27.79929 -1.671665,-4.00927 -1.645439,-7.49748 1.300723,-10.94447 4.64418,-5.43378 8.03368,-11.88019 13.87439,-16.75842 z"
   id="path11"
   style="fill:#e6e6e6;stroke-width:1.39056" />
</svg>
