<?xml version="1.0" encoding="UTF-8" standalone="no"?>
<svg
   version="1.1"
   id="Layer_1"
   x="0px"
   y="0px"
   width="360"
   viewBox="0 0 359.99999 380"
   enable-background="new 0 0 1024 544"
   xml:space="preserve"
   sodipodi:docname="DAZO-logo-carre-noir.svg"
   height="380"
   inkscape:version="1.4 (e7c3feb100, 2024-10-09)"
   xmlns:inkscape="http://www.inkscape.org/namespaces/inkscape"
   xmlns:sodipodi="http://sodipodi.sourceforge.net/DTD/sodipodi-0.dtd"
   xmlns="http://www.w3.org/2000/svg"
   xmlns:svg="http://www.w3.org/2000/svg"><defs
   id="defs11" /><sodipodi:namedview
   id="namedview11"
   pagecolor="#ffffff"
   bordercolor="#000000"
   borderopacity="0.25"
   inkscape:showpageshadow="2"
   inkscape:pageopacity="0.0"
   inkscape:pagecheckerboard="0"
   inkscape:deskcolor="#d1d1d1"
   inkscape:zoom="1.3369141"
   inkscape:cx="159.69613"
   inkscape:cy="187.3718"
   inkscape:window-width="1920"
   inkscape:window-height="1008"
   inkscape:window-x="0"
   inkscape:window-y="0"
   inkscape:window-maximized="1"
   inkscape:current-layer="Layer_1" />
<path
   fill="#000000"
   opacity="1"
   stroke="none"
   d="m 216.57468,181.45762 c 7.78558,-11.13415 11.06048,-22.99044 8.72888,-36.20007 -0.19397,-1.09872 -0.33075,-2.60825 0.2431,-3.37605 3.44049,-4.60376 7.16333,-8.98049 11.94306,-13.00914 3.40271,5.68185 4.48144,11.43225 5.02557,17.11609 3.87158,40.44122 -27.01392,70.3171 -61.34055,75.53012 -4.29104,0.65164 -8.60015,0.85238 -12.94183,0.84256 -23.99088,-0.0543 -47.98245,-0.12918 -71.972409,0.0239 -4.70273,0.03 -6.4921,-1.37759 -6.27368,-6.29449 0.96124,-21.63944 6.57946,-41.78212 19.405539,-59.40579 11.85642,-16.29125 24.16019,-32.26235 36.48475,-48.20609 17.46084,-22.588355 49.61309,-22.271415 71.04931,-4.90741 2.17627,1.76286 2.44049,3.40997 0.37659,5.34885 -0.12109,0.1138 -0.22827,0.24254 -0.34125,0.36506 -2.59436,2.81398 -4.69732,6.69594 -7.90698,8.17293 -4.04907,1.8633 -6.24084,-3.32145 -9.4469,-5.06911 -15.48962,-8.44367 -30.94177,-5.71023 -41.83078,8.24845 -11.26761,14.44403 -22.35056,29.03775 -33.24909,43.76228 -8.7394,11.80737 -14.4147,24.98313 -16.33367,39.48102 1.57324,1.73853 3.34884,1.2117 4.92913,1.21494 18.82618,0.0385 37.65384,-0.12479 56.47831,0.0562 19.66449,0.18909 35.00634,-7.94617 46.9729,-23.69431 z"
   id="path1" />
<path
   fill="#000000"
   opacity="1"
   stroke="none"
   d="m 220.21115,223.10578 c 14.97443,-12.34684 27.88458,-25.79126 33.79852,-44.58934 6.20966,-19.73783 5.14209,-39.08758 -3.22204,-57.91408 -1.74262,-3.92242 -1.37146,-6.40575 1.69751,-9.10519 2.70892,-2.38279 5.11078,-5.11473 7.79413,-7.84075 2.55151,1.76196 3.5733,4.23793 4.7041,6.57884 18.27911,37.84312 10.98822,81.66663 -18.46784,111.70857 -17.80108,18.15515 -38.64343,32.03183 -60.99035,43.8526 -2.11383,1.1182 -3.88166,1.27794 -6.06751,0.14511 -18.56436,-9.62073 -35.79382,-21.21247 -51.7348,-34.73118 -0.74762,-0.63405 -1.49417,-1.30032 -1.45544,-3.34636 10.78817,1.23631 21.85403,-3.30967 31.76614,5.33377 5.82303,5.07772 13.17474,8.38107 19.73074,12.64868 3.18879,2.07568 5.92346,1.89728 9.19965,0.001 11.55975,-6.69055 22.56787,-14.15321 33.24719,-22.74176 z"
   id="path2" />
<path
   fill="#000000"
   opacity="1"
   stroke="none"
   d="m 167.91074,164.65522 c -5.87171,-6.39244 -11.45316,-12.57278 -17.15314,-18.6418 -2.17462,-2.31544 -2.66364,-4.34313 -0.30002,-6.86827 2.68823,-2.87196 4.43411,-6.58087 8.17951,-9.46945 7.7857,8.33167 15.46545,16.54991 23.68319,25.34387 4.61743,-4.90463 9.07654,-9.5205 13.40302,-14.25752 18.86725,-20.65747 37.64801,-41.394195 56.59356,-61.979355 2.63477,-2.86281 2.78089,-4.62633 -0.29553,-7.20839 -3.10431,-2.60555 -6.57019,-5.01016 -9.30096,-9.48017 15.73999,-3.84564 30.81225,-7.52816 47.46283,-11.59629 -2.98657,16.51324 -5.75269,31.80764 -8.6352,47.74542 -5.68402,-3.3581 -8.63513,-8.25101 -13.59942,-11.70285 -5.12525,5.50526 -10.24292,10.89084 -15.23834,16.387535 -22.17206,24.39695 -44.36823,48.77261 -66.38861,73.30591 -2.97791,3.3177 -4.85236,3.69195 -7.73896,0.12176 -3.23926,-4.00628 -6.93289,-7.64518 -10.67193,-11.7004 z"
   id="path3" />
<path
   fill="#000000"
   opacity="1"
   stroke="none"
   d="m 76.864621,354.00944 c -7.13159,3.2327 -14.2796,4.53555 -21.70111,4.52161 -9.16595,-0.0173 -18.33465,-0.14383 -27.49664,0.0455 -3.95959,0.0818 -5.70151,-1.05169 -5.66635,-5.34532 0.16782,-20.49718 0.14688,-40.9966 0.0466,-61.49452 -0.0179,-3.67023 1.29169,-4.98419 4.96719,-4.92661 11.16318,0.17499 22.33289,-0.056 33.49561,0.13327 16.57757,0.28104 30.40948,10.81698 34.14612,25.73656 4.36743,17.43831 -1.97998,32.40648 -17.79142,41.32948 m -36.3573,-19.35987 c -8.5e-4,0.83204 0.0948,1.67746 -0.0185,2.49391 -0.67825,4.88949 1.55374,6.55017 6.25928,6.17031 4.30261,-0.34733 8.66687,0.0298 12.96155,-0.36896 10.04287,-0.9325 17.35998,-8.6731 18.11609,-18.80637 0.7579,-10.15762 -5.35605,-18.95492 -14.89774,-21.60345 -5.90152,-1.63813 -11.92041,-0.62201 -17.87146,-1.02906 -3.57233,-0.24435 -4.63178,1.37525 -4.58716,4.70917 0.12247,9.15057 0.0401,18.30393 0.0379,28.43445 z"
   id="path4" />
<path
   fill="#000000"
   opacity="1"
   stroke="none"
   d="m 340.84476,334.4542 c -7.3559,19.85584 -29.26758,29.80942 -50.75623,23.46213 -18.67615,-5.51654 -28.22668,-20.04498 -27.68024,-36.94056 0.59961,-18.53832 14.20105,-32.34398 32.98993,-35.07164 19.19391,-2.78644 36.10828,4.97924 43.53638,20.05139 4.47473,9.07962 5.00617,18.47775 1.91016,28.49869 m -39.69342,-33.80298 c -1.30164,0.25311 -2.61365,0.46194 -3.9032,0.76635 -9.26679,2.18754 -15.57745,9.20283 -16.51752,18.33234 -1.01745,9.88144 4.07599,18.97046 12.7431,22.73966 8.41517,3.65963 19.31647,1.46447 25.2663,-5.15311 6.35455,-7.06781 7.18018,-15.33661 3.84094,-23.72377 -3.58252,-8.9981 -11.15143,-12.73352 -21.42962,-12.96147 z"
   id="path5" />
<path
   fill="#000000"
   opacity="1"
   stroke="none"
   d="m 119.34247,354.24034 c -1.14374,3.28247 -3.11695,4.52981 -6.24069,4.31725 -4.39716,-0.29922 -8.8675,0.40481 -13.01615,-0.45724 -0.842369,-2.37622 0.35248,-3.76467 1.0271,-5.21029 9.56995,-20.50766 19.25763,-40.96085 28.71854,-61.5185 1.55316,-3.37485 3.63028,-4.2048 7.18243,-4.66269 9.70914,-1.2514 15.08606,1.86576 18.98868,11.55279 7.13742,17.71659 16.15634,34.6731 24.30588,51.98652 1.09772,2.33206 2.77081,4.54522 2.56781,7.86847 -5.45697,0.7948 -10.89511,0.44592 -16.30521,0.2247 -2.15555,-0.0882 -3.0964,-2.03094 -3.48285,-3.79673 -2.10452,-9.61587 -8.14605,-12.39697 -17.41745,-11.08434 -5.05938,0.71631 -10.32199,0.39841 -15.45883,0.0474 -4.63669,-0.31686 -7.69879,0.90554 -8.77222,5.78253 -0.35095,1.59446 -1.27713,3.06235 -2.09704,4.95017 m 12.30401,-27.74603 c -0.29123,1.1542 -1.52774,2.74776 0.99649,2.77568 5.8718,0.065 11.74482,0.0207 18.87736,0.0207 -3.66922,-8.53245 -6.78779,-15.78436 -10.43424,-24.26389 -3.48462,7.87555 -6.3486,14.34839 -9.43961,21.46747 z"
   id="path6" />
<path
   fill="#000000"
   opacity="1"
   stroke="none"
   d="m 224.99399,305.98654 c 0.9566,-1.32989 2.16223,-2.11761 2.23498,-3.99636 -5.37005,-0.9475 -10.81036,-0.30133 -16.20483,-0.42237 -5.32996,-0.11952 -10.66443,-0.0758 -15.99658,-0.0404 -2.66028,0.0177 -3.79212,-1.12796 -4.03455,-3.8584 -0.93799,-10.56343 -0.77728,-10.81397 9.94428,-10.81564 14.83087,-0.002 29.66223,-0.0679 44.49212,0.0524 2.46405,0.02 6.10553,-1.4881 7.14148,1.62375 1.28119,3.84866 1.73395,8.21515 -1.38446,11.83744 -10.10596,11.73885 -20.22034,23.47055 -30.31518,35.21902 -1.82227,2.12076 -3.56714,4.30795 -5.71723,6.91205 3.06696,1.15694 5.70856,0.73682 8.26935,0.75153 8.66486,0.0498 17.33105,0.098 25.99506,-2.8e-4 3.74768,-0.0425 5.36499,1.31241 5.27264,5.29129 -0.26471,11.4018 0.97253,9.92758 -9.84198,9.97342 -16.49695,0.0699 -32.99615,-0.11539 -49.49066,0.0956 -4.43683,0.0567 -5.87622,-1.35996 -5.5683,-5.76678 0.27106,-3.87831 0.40131,-7.39359 3.27466,-10.58689 10.69641,-11.88751 21.15747,-23.98678 31.9292,-36.26941 z"
   id="path7" />
<path
   fill="#000000"
   opacity="1"
   stroke="none"
   d="m 142.7233,101.43788 c -5.2652,10.62144 -13.14435,18.80789 -20.46286,27.60768 -1.38892,-7.06912 0.0566,-13.66247 1.30499,-20.24857 3.40945,-17.987855 11.23602,-34.071105 21.42334,-49.106125 10.47772,-15.46365 21.8671,-30.23685 33.91373,-44.505943 0.94812,-1.123009 1.77349,-2.438065 4.2547,-3.184922 12.79358,14.918183 25.16742,30.568525 36.69616,47.954645 -5.06909,0.32881 -8.20855,-2.63651 -11.88012,-2.93128 -10.68561,-0.85786 -17.29425,-7.27208 -22.60266,-15.7283 -0.69074,-1.1003 -1.68207,-2.01185 -3.12604,-3.70472 -15.08429,20.29161 -31.47315,39.20004 -39.52124,63.847535 z"
   id="path8" />
<path
   fill="#000000"
   opacity="1"
   stroke="none"
   d="m 90.036471,78.237205 c 0.005,-5.66562 0.0698,-10.83234 -0.0122,-15.99672 -0.0396,-2.49121 1.00379,-3.79205 3.48273,-3.79503 13.985009,-0.0167 27.970059,-0.0199 41.954929,0.0291 0.74392,0.003 1.48602,0.52216 2.7525,0.99759 -2.88941,5.0058 -5.58045,9.73399 -8.34333,14.41983 -1.00534,1.70508 -2.80801,1.57962 -4.47076,1.589 -3.99921,0.0226 -7.9986,0.004 -11.99792,0.003 -6.72107,-0.002 -6.73481,-0.002 -6.73658,6.94888 -0.005,20.996505 -0.0527,41.993245 0.0539,62.989195 0.0185,3.64424 -0.6232,6.75878 -2.94727,9.72388 -3.29043,4.19797 -5.776059,8.94726 -8.105739,13.75389 -0.62216,1.28357 -0.9772,2.80994 -3.1196,3.66019 -1.68973,-6.89019 -2.3971,-13.60169 -2.43131,-20.33542 -0.12435,-24.49526 -0.0676,-48.99143 -0.0794,-73.987135 z"
   id="path9" />
<path
   fill="#000000"
   opacity="1"
   stroke="none"
   d="m 163.8775,71.779575 c 9.35401,-13.97828 9.37732,-14.23352 25.75211,-12.73698 18.37445,1.67929 34.58856,8.94643 49.10382,20.23189 2.44501,1.90101 2.45325,3.30913 0.4892,5.64314 -7.90674,9.39578 -7.80957,9.40938 -18.02436,2.75371 -12.13464,-7.90666 -25.45373,-12.02881 -39.9639,-12.16608 -4.98855,-0.0472 -9.97802,0.003 -14.96658,-0.0443 -2.21896,-0.0213 -4.3551,-0.23787 -2.39029,-3.68134 z"
   id="path10" />
<path
   fill="#000000"
   opacity="1"
   stroke="none"
   d="m 137.64514,157.12757 c 0.82279,1.00848 1.5575,1.98876 1.77045,3.07162 3.05389,15.52986 11.36319,27.46675 24.48947,36.16938 0.90823,0.60215 2.1655,0.97818 2.2601,3.02181 -8.0899,0 -16.14191,0.043 -24.19256,-0.0407 -1.40653,-0.0146 -2.27164,-1.28463 -3.12577,-2.30862 -5.04764,-6.05127 -9.078,-12.70844 -12.11462,-19.9914 -1.20215,-2.8832 -1.18329,-5.39169 0.93539,-7.87054 3.33979,-3.90761 5.77729,-8.54344 9.97754,-12.05154 z"
   id="path11" />
</svg>
